<svg width="37" height="37" viewBox="0 0 37 37" fill="none" xmlns="http://www.w3.org/2000/svg">
<g clip-path="url(#clip0_6330_7013)">
<path d="M18.5 37C28.7173 37 37 28.7173 37 18.5C37 8.28273 28.7173 0 18.5 0C8.28273 0 0 8.28273 0 18.5C0 28.7173 8.28273 37 18.5 37Z" fill="black"/>
<path d="M18.4514 28.8944C18.161 28.586 17.9069 28.2454 17.694 27.8792C17.1529 27.0282 16.2464 25.0302 16.2441 22.8333C14.3305 23.9502 12.1232 24.1676 11.108 24.1237C10.7249 24.1231 10.3428 24.0828 9.96798 24.0034C10.3935 26.0754 11.4599 27.5878 13.1673 28.5406C14.8246 29.4656 16.586 29.5835 18.4514 28.8944ZM25.3195 19.7947C25.8665 19.1006 26.2538 18.2944 26.4538 17.4336C26.6912 16.4416 26.6958 15.4453 26.4677 14.4447L28.4911 13.8712C28.6471 13.832 28.7934 13.7613 28.9211 13.6635C29.0487 13.5657 29.155 13.4428 29.2334 13.3023C29.3113 13.1619 29.3597 13.0069 29.3756 12.8471C29.3915 12.6872 29.3746 12.5258 29.3259 12.3727C29.2871 12.2167 29.2169 12.0703 29.1194 11.9425C29.022 11.8146 28.8995 11.708 28.7594 11.6292C28.6187 11.5512 28.4636 11.5027 28.3035 11.4868C28.1435 11.4709 27.9818 11.4879 27.8286 11.5367L25.5716 12.1773C24.8216 11.213 24.0488 10.5142 23.2533 10.081C22.4578 9.64859 21.5397 9.42582 20.4991 9.41271L19.8366 7.07709C19.7975 6.9212 19.727 6.77495 19.6294 6.6473C19.5318 6.51965 19.4091 6.4133 19.2689 6.33477C19.1282 6.2567 18.9731 6.20821 18.813 6.1923C18.653 6.1764 18.4913 6.1934 18.3381 6.24227C18.1823 6.2812 18.0361 6.35153 17.9085 6.44896C17.7808 6.54638 17.6744 6.66884 17.5958 6.80884C17.5175 6.94939 17.4688 7.10447 17.4527 7.26454C17.4366 7.42461 17.4534 7.58629 17.5021 7.73962L18.0756 9.76306C17.115 10.0903 16.2486 10.6467 15.5515 11.3841C14.9863 11.973 14.5375 12.6635 14.2288 13.4191L20.9813 14.2516L25.3195 19.7947ZM11.0884 14.1499C9.91298 14.1543 8.78747 14.6255 7.95947 15.4598C7.13147 16.2941 6.6688 17.4231 6.67325 18.5985C6.6777 19.774 7.14889 20.8995 7.98318 21.7275C8.81747 22.5555 9.94651 23.0181 11.1219 23.0137H11.1474C12.1787 23.0622 14.6866 22.7778 16.4719 21.3337L20.017 15.2506L11.0884 14.1499ZM17.42 21.9118L20.9038 15.934L26.3463 22.9142C26.9297 23.9348 27.0838 25.1453 26.7747 26.2795C26.4656 27.4137 25.7186 28.3786 24.698 28.962C23.6775 29.5454 22.467 29.6995 21.3328 29.3904C20.1986 29.0813 19.2337 28.3343 18.6503 27.3138L18.6375 27.2907C18.086 26.4316 17.0951 24.1572 17.42 21.9118Z" fill="url(#paint0_linear_6330_7013)"/>
</g>
<defs>
<linearGradient id="paint0_linear_6330_7013" x1="43.0182" y1="18.0326" x2="-5.71424" y2="18.6974" gradientUnits="userSpaceOnUse">
<stop stop-color="#F8F29C"/>
<stop offset="0.165" stop-color="#F6DB2A"/>
<stop offset="0.333" stop-color="#F4A435"/>
<stop offset="0.55" stop-color="#E85A46"/>
<stop offset="0.699" stop-color="#B93483"/>
<stop offset="0.867" stop-color="#502B6E"/>
<stop offset="1" stop-color="#2A2136"/>
</linearGradient>
<clipPath id="clip0_6330_7013">
<rect width="37" height="37" fill="white"/>
</clipPath>
</defs>
</svg>
