<svg width="390" height="390" viewBox="0 0 390 390" fill="none" xmlns="http://www.w3.org/2000/svg">
<path d="M194.997 3.52637H195.004C300.751 3.52637 386.476 89.2525 386.476 195V195.007C386.476 300.754 300.751 386.479 195.004 386.479H194.997C89.2494 386.479 3.52319 300.754 3.52319 195.007V195C3.52319 89.2525 89.2494 3.52637 194.997 3.52637Z" fill="#111111" stroke="#111111" stroke-width="7.05362"/>
<path d="M195.004 0H194.996C87.3011 0 -0.00317383 87.3043 -0.00317383 195V195.007C-0.00317383 302.702 87.3011 390.006 194.996 390.006H195.004C302.699 390.006 390.003 302.702 390.003 195.007V195C390.003 87.3043 302.699 0 195.004 0Z" fill="black" fill-opacity="0.7"/>
<path d="M194.997 3.57129H195.004C300.726 3.57129 386.431 89.2772 386.431 195V195.007C386.431 300.73 300.726 386.435 195.004 386.435H194.997C89.274 386.435 3.56812 300.73 3.56812 195.007V195C3.56812 89.2772 89.274 3.57129 194.997 3.57129Z" stroke="white" stroke-width="7.14291"/>
<path fill-rule="evenodd" clip-rule="evenodd" d="M152.331 104.311H148.175L145.481 107.475L75.9306 189.167L70.9658 194.999L75.9306 200.83L145.481 282.523L148.175 285.687H152.331H277.546H286.542V276.691V224.757H268.55V267.695H163.29L221.388 200.522L226.477 194.637L221.388 188.752L163.916 122.302H268.55V165.24H286.542V113.307V104.311H277.546H152.331ZM148.372 131.833L94.5943 194.999L148.062 257.8L202.69 194.637L148.372 131.833Z" fill="white"/>
</svg>
