<svg width="80" height="80" viewBox="0 0 80 80" fill="none" xmlns="http://www.w3.org/2000/svg">
<circle cx="40" cy="40" r="40" fill="#00FF00"/>
<path d="M40.0035 16C35.2564 15.9993 30.6158 17.4064 26.6685 20.0433C22.7212 22.6802 19.6445 26.4284 17.8276 30.814C16.0106 35.1996 15.5351 40.0254 16.461 44.6813C17.3869 49.3372 19.6728 53.6139 23.0295 56.9706C26.3861 60.3272 30.6628 62.6131 35.3187 63.539C39.9746 64.4649 44.8004 63.9894 49.186 62.1724C53.5716 60.3555 57.3198 57.2788 59.9567 53.3315C62.5936 49.3842 64.0007 44.7436 64 39.9965C64 33.6323 61.4718 27.5286 56.9716 23.0284C52.4714 18.5282 46.3677 16 40.0035 16ZM40.0035 58.7586C35.258 58.7628 30.6877 56.9667 27.2148 53.7328C23.7419 50.4989 21.6251 46.0679 21.2917 41.3342C20.9582 36.6005 22.4329 31.9165 25.4181 28.2277C28.4033 24.5388 32.6767 22.1197 37.3759 21.4586V32.931C35.7143 33.5474 34.3222 34.7283 33.4431 36.2672C32.5641 37.806 32.254 39.605 32.5671 41.3493C32.8802 43.0937 33.7966 44.6725 35.156 45.8096C36.5154 46.9467 38.2312 47.5697 40.0035 47.5697C41.7757 47.5697 43.4916 46.9467 44.8509 45.8096C46.2103 44.6725 47.1267 43.0937 47.4398 41.3493C47.7529 39.605 47.4428 37.806 46.5638 36.2672C45.6847 34.7283 44.2927 33.5474 42.631 32.931V21.4414C47.3302 22.1025 51.6036 24.5216 54.5888 28.2104C57.574 31.8993 59.0487 36.5833 58.7152 41.317C58.3818 46.0507 56.265 50.4816 52.7921 53.7156C49.3192 56.9495 44.7489 58.7456 40.0035 58.7414V58.7586Z" fill="black"/>
</svg>
