<svg width="37" height="37" viewBox="0 0 37 37" fill="none" xmlns="http://www.w3.org/2000/svg">
<g clip-path="url(#clip0_6330_7572)">
<path d="M18.5 37C28.7173 37 37 28.7173 37 18.5C37 8.28273 28.7173 0 18.5 0C8.28273 0 0 8.28273 0 18.5C0 28.7173 8.28273 37 18.5 37Z" fill="black"/>
<path fill-rule="evenodd" clip-rule="evenodd" d="M31.0615 13.754C31.078 15.2741 30.5158 16.7435 29.489 17.8645C29.4467 17.9107 29.4153 17.9659 29.3973 18.026C29.3793 18.0861 29.375 18.1494 29.3849 18.2113C30.059 21.9992 29.0658 25.1142 27.0216 27.3342C24.8744 29.664 21.7248 30.8237 18.6688 30.8873H18.559C15.5042 30.8237 12.3545 29.6628 10.2062 27.333C8.16313 25.1142 7.16991 21.9992 7.84285 18.2113C7.85275 18.1494 7.84854 18.0861 7.83052 18.026C7.8125 17.9659 7.78114 17.9107 7.73879 17.8645C6.93021 16.9802 6.40544 15.8738 6.2323 14.6882C6.05916 13.5026 6.2456 12.2923 6.76754 11.2137C7.84632 8.98215 10.5751 7.23968 13.3686 7.82243C13.4611 7.8417 13.5736 7.87061 13.7062 7.90915C14.1213 8.03171 14.504 8.241 14.8393 8.5104C15.5863 9.10587 16.9576 9.50478 18.5254 9.50478H18.7035C20.2714 9.50478 21.6427 9.10703 22.3885 8.5104C22.7249 8.24215 23.1077 8.03171 23.5216 7.90915C23.6334 7.87599 23.7464 7.84706 23.8604 7.82243C26.6539 7.24084 29.3826 8.98331 30.4614 11.2137C30.8488 12.0081 31.0523 12.8787 31.0615 13.754ZM12.728 11.4958C13.0853 11.5617 13.4264 11.697 13.7363 11.8913C14.2508 12.215 14.1352 12.9227 13.6426 13.2765L11.122 15.0791C10.6294 15.4329 9.91022 15.3219 9.75529 14.7403C9.66247 14.3937 9.63773 14.0325 9.68244 13.6765C9.72869 13.3216 9.84432 12.9862 10.0201 12.6856C10.197 12.3862 10.434 12.1248 10.7173 11.9248C11.0006 11.7248 11.3243 11.5826 11.6677 11.5086C12.0167 11.4332 12.3773 11.4289 12.728 11.4958ZM26.3394 11.9237C26.6233 12.1286 26.8619 12.39 27.0402 12.6914C27.2185 12.9928 27.3326 13.3278 27.3754 13.6754C27.4216 14.0257 27.3962 14.3888 27.3025 14.7391C27.1464 15.3219 26.4284 15.4329 25.9347 15.0791L23.4152 13.2765C22.9215 12.9227 22.8059 12.215 23.3204 11.8913C23.6286 11.6971 23.9707 11.563 24.3287 11.4958C24.6793 11.4285 25.0399 11.4324 25.3889 11.5074C25.7335 11.5791 26.0561 11.7236 26.3394 11.9237ZM19.5499 22.4317C18.9429 22.2277 18.286 22.2277 17.6791 22.4317C17.3438 22.5461 17.0524 22.723 17.0709 22.989C17.1044 23.3971 17.7531 24.0955 18.2213 24.24C18.5081 24.3267 18.6885 24.321 19.0076 24.24C19.477 24.1198 20.1292 23.3971 20.1592 22.989C20.18 22.723 19.8852 22.5461 19.5499 22.4317ZM15.7204 20.5736C15.9586 20.7112 16.1678 20.8973 16.3355 21.1182C16.5032 21.3402 16.628 21.5957 16.7009 21.8709C16.8234 22.3276 16.3748 22.6722 15.8996 22.6178L14.6913 22.4791L13.49 22.3449C13.0159 22.2906 12.6621 21.8535 12.8841 21.4361C13.0176 21.1874 13.1978 20.9668 13.4148 20.7863C13.631 20.6059 13.8773 20.4741 14.1398 20.3932C14.4016 20.3135 14.6769 20.2885 14.9488 20.3195C15.2207 20.3505 15.4833 20.437 15.7204 20.5736ZM23.7737 20.7435C23.5574 20.5643 23.3112 20.4313 23.0487 20.3504C22.7869 20.2708 22.5116 20.2457 22.2397 20.2767C21.9678 20.3077 21.7052 20.3942 21.4681 20.5308C21.2299 20.6695 21.0206 20.8545 20.853 21.0765C20.6841 21.3017 20.56 21.5572 20.4876 21.8292C20.365 22.2848 20.8125 22.6294 21.2854 22.5762L22.4948 22.4374L23.6973 22.3033C24.1737 22.249 24.5264 21.8119 24.3044 21.3945C24.1687 21.1469 23.9888 20.9263 23.7737 20.7435Z" fill="url(#paint0_linear_6330_7572)"/>
</g>
<defs>
<linearGradient id="paint0_linear_6330_7572" x1="46.0222" y1="19.4705" x2="-7.43699" y2="20.2752" gradientUnits="userSpaceOnUse">
<stop stop-color="#F8F29C"/>
<stop offset="0.165" stop-color="#F6DB2A"/>
<stop offset="0.333" stop-color="#F4A435"/>
<stop offset="0.55" stop-color="#E85A46"/>
<stop offset="0.699" stop-color="#B93483"/>
<stop offset="0.867" stop-color="#502B6E"/>
<stop offset="1" stop-color="#2A2136"/>
</linearGradient>
<clipPath id="clip0_6330_7572">
<rect width="37" height="37" fill="white"/>
</clipPath>
</defs>
</svg>
